HIERARCHY
ROOT Hips
{
	OFFSET -0.001795 -0.223333 0.028219
	CHANNELS 6 Xposition Yposition Zposition Zrotation Yrotation Xrotation 
	JOINT LeftUpLeg
	{
		OFFSET 0.069520 -0.091406 -0.006815
		CHANNELS 3 Zrotation Yrotation Xrotation
		JOINT LeftLeg
		{
			OFFSET 0.034277 -0.375199 -0.004496
			CHANNELS 3 Zrotation Yrotation Xrotation
			JOINT LeftFoot
			{
				OFFSET -0.013596 -0.397961 -0.043693
				CHANNELS 3 Zrotation Yrotation Xrotation
				JOINT LeftToe
				{
					OFFSET 0.026358 -0.055791 0.119288
					CHANNELS 3 Zrotation Yrotation Xrotation
					End Site
					{
						OFFSET 0.000000 0.000000 0.000000
					}
				}
			}
		}
	}
	JOINT RightUpLeg
	{
		OFFSET -0.067670 -0.090522 -0.004320
		CHANNELS 3 Zrotation Yrotation Xrotation
		JOINT RightLeg
		{
			OFFSET -0.038290 -0.382569 -0.008850
			CHANNELS 3 Zrotation Yrotation Xrotation
			JOINT RightFoot
			{
				OFFSET 0.015774 -0.398415 -0.042312
				CHANNELS 3 Zrotation Yrotation Xrotation
				JOINT RightToe
				{
					OFFSET -0.025372 -0.048144 0.123348
					CHANNELS 3 Zrotation Yrotation Xrotation
					End Site
					{
						OFFSET 0.000000 0.000000 0.000000
					}
				}
			}
		}
	}
	JOINT Spine
	{
		OFFSET -0.002533 0.108963 -0.026696
		CHANNELS 3 Zrotation Yrotation Xrotation
		JOINT Spine1
		{
			OFFSET 0.005487 0.135180 0.001092
			CHANNELS 3 Zrotation Yrotation Xrotation
			JOINT Spine2
			{
				OFFSET 0.001457 0.052922 0.025425
				CHANNELS 3 Zrotation Yrotation Xrotation
				JOINT Neck
				{
					OFFSET -0.002778 0.213870 -0.042857
					CHANNELS 3 Zrotation Yrotation Xrotation
					JOINT Head
					{
						OFFSET 0.005152 0.064970 0.051349
						CHANNELS 3 Zrotation Yrotation Xrotation
						End Site
						{
							OFFSET 0.000000 0.000000 0.000000
						}
					}
				}
				JOINT LeftShoulder
				{
					OFFSET 0.078845 0.121749 -0.034090
					CHANNELS 3 Zrotation Yrotation Xrotation
					JOINT LeftArm
					{
						OFFSET 0.090977 0.030469 -0.008868
						CHANNELS 3 Zrotation Yrotation Xrotation
						JOINT LeftForeArm
						{
							OFFSET 0.259612 -0.012772 -0.027456
							CHANNELS 3 Zrotation Yrotation Xrotation
							JOINT LeftHand
							{
								OFFSET 0.249234 0.008986 -0.001171
								CHANNELS 3 Zrotation Yrotation Xrotation
								End Site
								{
									OFFSET 0.000000 0.000000 0.000000
								}
							}
						}
					}
				}
				JOINT RightShoulder
				{
					OFFSET -0.081759 0.118833 -0.038615
					CHANNELS 3 Zrotation Yrotation Xrotation
					JOINT RightArm
					{
						OFFSET -0.096012 0.032551 -0.009143
						CHANNELS 3 Zrotation Yrotation Xrotation
						JOINT RightForeArm
						{
							OFFSET -0.253742 -0.013329 -0.021401
							CHANNELS 3 Zrotation Yrotation Xrotation
							JOINT RightHand
							{
								OFFSET -0.255298 0.007772 -0.005559
								CHANNELS 3 Zrotation Yrotation Xrotation
								End Site
								{
									OFFSET 0.000000 0.000000 0.000000
								}
							}
						}
					}
				}
			}
		}
	}
}
MOTION
Frames: 8
Frame Time: 0.050000
0.000000 0.920737 0.000000 1.410941 2.791766 -6.071622 8.092817 -0.436541 -16.400267 -17.078771 7.969613 54.044637 11.233300 22.382528 6.277565 0.000000 0.000000 0.000000 -1.549706 0.947775 -11.146710 7.315079 -1.488251 20.042058 -7.720073 -18.941703 -2.877098 0.000000 0.000000 0.000000 4.390237 -1.908304 23.110040 -1.661929 1.082556 -20.789600 -1.785473 0.473638 27.397956 5.612517 -2.206151 -20.728117 0.000000 0.000000 0.000000 -23.136978 -13.481630 5.944671 -47.982090 -17.125176 -1.360592 -10.227909 -76.211572 13.115044 0.000000 0.000000 0.000000 21.039317 5.755450 2.767613 48.602253 14.145088 -1.910893 160.725810 87.238050 168.193788 0.000000 0.000000 0.000000 
0.000240 0.923218 0.016185 2.091923 1.929923 -5.906842 10.224061 -0.135018 -19.092198 -19.724937 8.903569 47.339732 11.591319 22.924693 6.917091 0.000000 0.000000 0.000000 -2.411831 0.756574 -9.593871 6.790727 -1.233280 19.003851 -7.346449 -17.978593 -1.689477 0.000000 0.000000 0.000000 3.442412 -1.703260 23.470367 -1.168561 0.924574 -21.465683 -1.593707 2.332079 28.162189 5.803891 -2.221525 -19.760622 0.000000 0.000000 0.000000 -23.059191 -12.468993 4.967436 -47.587358 -17.594776 -1.137257 -13.790404 -78.783578 16.254785 0.000000 0.000000 0.000000 21.084525 4.886323 2.649293 50.078920 15.363274 -1.520434 156.219937 87.258634 164.409170 0.000000 0.000000 0.000000 
0.002095 0.924907 0.031422 1.413665 1.544861 -5.303185 9.932224 -0.196864 -20.803375 -16.587298 6.055954 37.944851 11.933732 23.537772 5.466405 0.000000 0.000000 0.000000 -2.188610 0.741905 -9.087203 6.776213 -1.213503 19.155637 -7.311880 -17.925664 -0.923138 0.000000 0.000000 0.000000 3.523629 -1.619611 22.258030 -1.207195 0.909197 -20.063231 -1.030750 2.154632 27.177762 5.402815 -1.905247 -20.143354 0.000000 0.000000 0.000000 -24.082237 -13.241839 5.513021 -46.219082 -15.530673 -1.801418 -3.569898 -81.467260 8.122909 0.000000 0.000000 0.000000 21.798834 6.404182 3.397435 49.714149 17.403518 -0.544609 -54.110645 88.198196 -44.154053 0.000000 0.000000 0.000000 
0.005439 0.925576 0.046093 1.404646 0.111491 -5.865003 9.541908 -0.167199 -20.410885 -13.587759 4.086742 29.050533 12.673730 24.285763 10.912674 0.000000 0.000000 0.000000 -1.712330 0.659196 -7.613463 5.984147 -0.904505 19.724615 -6.545605 -15.853628 -2.223019 0.000000 0.000000 0.000000 3.524798 -1.642251 23.553452 -1.631186 1.002846 -20.928418 -1.471984 2.983242 27.156381 5.698965 -2.081574 -20.227527 0.000000 0.000000 0.000000 -23.983688 -12.633114 5.147700 -46.190251 -14.278830 -2.277230 -14.760852 -82.543853 18.105863 0.000000 0.000000 0.000000 22.923814 5.578863 2.949478 50.345237 17.507475 -0.492810 -38.596600 88.991292 -29.370690 0.000000 0.000000 0.000000 
0.011012 0.924905 0.061669 1.188008 -0.635414 -5.177141 9.542329 -0.136248 -20.109478 -10.366406 2.387469 20.267945 10.906209 21.561791 12.878109 0.000000 0.000000 0.000000 -2.073865 0.599034 -7.034908 6.315013 -0.947359 19.435734 -6.659109 -16.051818 -2.583646 0.000000 0.000000 0.000000 3.568467 -1.495194 21.693704 -1.929772 1.063125 -20.699048 -1.501520 2.802069 27.026425 4.878736 -1.541339 -20.699915 0.000000 0.000000 0.000000 -23.967734 -11.808808 4.858012 -46.363904 -12.914407 -2.805092 -23.069996 -82.898713 25.816738 0.000000 0.000000 0.000000 23.637661 5.419528 2.663785 50.568176 16.560196 -0.791379 21.228184 86.069223 27.615639 0.000000 0.000000 0.000000 
0.017939 0.924847 0.078276 1.078084 -2.518887 -5.237923 10.455702 0.132610 -18.462312 -9.443975 1.850072 13.501144 9.942595 19.984716 15.421672 0.000000 0.000000 0.000000 -1.978664 0.465800 -5.289615 6.268277 -0.808378 17.873924 -7.571773 -18.105441 -3.036901 0.000000 0.000000 0.000000 3.237883 -1.263560 20.199609 -2.423692 1.152855 -20.268324 -1.262890 3.832111 27.583221 5.244830 -1.725168 -21.126935 0.000000 0.000000 0.000000 -22.269767 -10.728566 4.262559 -48.207987 -11.939361 -3.323490 -33.765252 -84.185668 36.435774 0.000000 0.000000 0.000000 24.189207 4.544002 2.120264 51.256880 15.964552 -1.056661 29.855844 83.462621 34.247537 0.000000 0.000000 0.000000 
0.026397 0.923575 0.096187 0.394827 -2.964498 -5.585649 10.681087 0.200903 -18.178231 -8.565583 1.643758 13.285291 8.073442 17.365754 17.321128 0.000000 0.000000 0.000000 -1.982916 0.266257 -2.871317 5.860794 -0.681994 17.249267 -7.511785 -17.843366 -3.658350 0.000000 0.000000 0.000000 4.391127 -1.422978 19.872253 -3.557587 1.466595 -20.618199 -1.493029 4.358278 28.234997 6.108912 -2.062068 -22.594307 0.000000 0.000000 0.000000 -21.041697 -10.755424 4.185839 -48.637362 -10.343721 -4.025906 -46.623846 -84.380100 48.449586 0.000000 0.000000 0.000000 25.155331 2.524553 1.023331 51.871020 14.620280 -1.745448 45.964703 81.019197 47.438405 0.000000 0.000000 0.000000 
0.036186 0.923670 0.114259 0.403833 -3.069439 -5.067515 10.074515 0.093800 -18.691379 -9.160157 1.890233 14.972543 8.715096 18.258333 18.002665 0.000000 0.000000 0.000000 -2.792484 0.132803 -1.112418 5.237340 -0.521565 16.594432 -7.032434 -16.512944 -4.320442 0.000000 0.000000 0.000000 4.569904 -1.395624 18.998694 -4.200758 1.641641 -20.815058 -1.707627 4.641286 28.262808 6.356657 -2.007256 -23.869956 0.000000 0.000000 0.000000 -20.851990 -9.586607 3.477829 -48.722192 -9.290162 -4.432119 -62.664957 -83.703883 62.970411 0.000000 0.000000 0.000000 25.890613 1.078178 0.180612 52.129623 13.651503 -2.188160 46.911661 77.997924 46.088483 0.000000 0.000000 0.000000 
